{"title":"Yellow Submarine(1968)MP-4[DaScubaDude]","uid":12359481,"size":898809118,"categoryP":"video","categoryS":"movies","magnet":"?xt=urn:btih:fd194935057bed433f512e8756b1c8697aea015f&amp;dn=Yellow+Submarine%281968%29MP-4%5BDaScubaDude%5D&amp;tr=udp%3A%2F%2Ftracker.openbittorrent.com%3A80&amp;tr=udp%3A%2F%2Fopen.demonii.com%3A1337&amp;tr=udp%3A%2F%2Ftracker.coppersurfer.tk%3A6969&amp;tr=udp%3A%2F%2Fexodus.desync.com%3A6969","seeders":1,"leechers":0,"uploader":"dascuba","files":1,"time":1441513939,"description":"Yellow Submarine (1968)\nG  |  85 min  |  Animation, Adventure, Comedy  |  13 November 1968 (USA)\n7.4 Your rating:   -/10   Ratings: 7.4/10 from 17,952 users   \nReviews: 148 user | 53 critic\nThe Beatles agree to accompany Captain Fred in his Yellow Submarine and go to Pepperland to free it from the music hating Blue Meanies.\n\nDirector: George Dunning\nWriters: Lee Minoff (story), Lee Minoff (screenplay), 4 more credits Â»\nStars: Paul McCartney, George Harrison, Ringo Starr\nGeneral\nComplete name                 : C:Yellow SubmarineYellow Submarine.mp4\nFormat                                   : MPEG-4\nFormat profile                           : Base Media\nCodec ID                                 : isom\nFile size                                : 857 MiB\nDuration                                 : 1h 29mn\nOverall bit rate                         : 1 336 Kbps\nMovie name                               : Yellow_Submarine\nGenre                                    : Fantasy\nWriting application                      : Lavf54.6.100\n\nVideo\nID                                       : 1\nFormat                                   : AVC\nFormat/Info                              : Advanced Video Codec\nFormat profile                           : Baseline@L3\nFormat settings, CABAC                   : No\nFormat settings, ReFrames                : 6 frames\nFormat settings, GOP                     : M=1, N=60\nCodec ID                                 : avc1\nCodec ID/Info                            : Advanced Video Coding\nDuration                                 : 1h 29mn\nBit rate                                 : 1 201 Kbps\nWidth                                    : 720 pixels\nHeight                                   : 404 pixels\nDisplay aspect ratio                     : 16:9\nFrame rate mode                          : Constant\nFrame rate                               : 29.970 fps\nColor space                              : YUV\nChroma subsampling                       : 4:2:0\nBit depth                                : 8 bits\nScan type                                : Progressive\nBits/(Pixel*Frame)                       : 0.138\nStream size                              : 771 MiB (90%)\n\nAudio\nID                                       : 2\nFormat                                   : AAC\nFormat/Info                              : Advanced Audio Codec\nFormat profile                           : LC\nCodec ID                                 : 40\nDuration                                 : 1h 29mn\nBit rate mode                            : Constant\nBit rate                                 : 128 Kbps\nChannel(s)                               : 2 channels\nChannel positions                        : Front: L R\nSampling rate                            : 44.1 KHz\nCompression mode                         : Lossy\nStream size                              : 82.1 MiB (10%)","torrent":{"xt":"urn:btih:fd194935057bed433f512e8756b1c8697aea015f","amp;dn":"Yellow+Submarine%281968%29MP-4%5BDaScubaDude%5D","amp;tr":["udp%3A%2F%2Ftracker.openbittorrent.com%3A80","udp%3A%2F%2Fopen.demonii.com%3A1337","udp%3A%2F%2Ftracker.coppersurfer.tk%3A6969","udp%3A%2F%2Fexodus.desync.com%3A6969"],"infoHash":"fd194935057bed433f512e8756b1c8697aea015f","infoHashBuffer":{"type":"Buffer","data":[253,25,73,53,5,123,237,67,63,81,46,135,86,177,200,105,122,234,1,95]},"announce":[],"urlList":[]}}